<mxfile host="app.diagrams.net" modified="2024-06-23T10:37:04.604Z" agent="Mozilla/5.0 (Windows NT 10.0; Win64; x64) AppleWebKit/537.36 (KHTML, like Gecko) Chrome/126.0.0.0 Safari/537.36" version="24.5.5" etag="Lzw0XJ2gKf2J2qBK_aYL" type="github">
  <diagram name="Page-1" id="R9DUHwTYwQiVHhRhFKTH">
    <mxGraphModel>
      <root>
        <mxCell id="0" />
        <mxCell id="1" parent="0" />
      </root>
    </mxGraphModel>
  </diagram>
</mxfile>
